# xmcd
#
# Track frame offsets: 
#        150
#        21146
#        41775
#        56046
#        84054
#        104500
#        121149
#        136453
#        154903
#        169655
#        190738
#        215336
#        231126
#
# Disc length: 3415 seconds
#
# Revision: 2
# Processed by: cddbd v1.5.2PL0 Copyright (c) Steve Scherf et al.
# Submitted via: ExactAudioCopy v0.95a5
#
DISCID=a90d550d
DTITLE=Emmerhoff And The Melancholy Babies - Misty trails
DYEAR=2004
DGENRE=Americana
TTITLE0=Baby sinister
TTITLE1=Last man
TTITLE2=This summer's done
TTITLE3=Caravanserai
TTITLE4=Nowhere town
TTITLE5=Misty trail
TTITLE6=Viva revenge
TTITLE7=Skeleton waltz
TTITLE8=Dark horse
TTITLE9=Monsoon
TTITLE10=Weightless
TTITLE11=Rag-and-bone man
TTITLE12=Mudswirl
EXTD=
EXTT0=
EXTT1=
EXTT2=
EXTT3=
EXTT4=
EXTT5=
EXTT6=
EXTT7=
EXTT8=
EXTT9=
EXTT10=
EXTT11=
EXTT12=
PLAYORDER=
